<?xml version="1.0" encoding="UTF-8" standalone="no"?><!DOCTYPE svg PUBLIC "-//W3C//DTD SVG 1.1//EN" "http://www.w3.org/Graphics/SVG/1.1/DTD/svg11.dtd"><svg width="100%" height="100%" viewBox="0 0 2084 2084" version="1.1" xmlns="http://www.w3.org/2000/svg" xmlns:xlink="http://www.w3.org/1999/xlink" xml:space="preserve" xmlns:serif="http://www.serif.com/" style="fill-rule:evenodd;clip-rule:evenodd;stroke-miterlimit:10;"><g id="freepik--background-complete--inject-79"></g><g id="freepik--Shadow--inject-79"></g><g id="freepik--Floor--inject-79"></g><g id="freepik--Heart--inject-79"></g><g id="freepik--Plant--inject-79"></g><g id="freepik--character-3--inject-79"></g><g id="freepik--character-1--inject-79"></g><g id="freepik--character-2--inject-79"></g><g id="freepik--speech-bubble--inject-79"><g><clipPath id="_clip1"><path d="M1582.02,237.326c-468.889,132.054 -738.912,127.385 -986.696,132.054c-418.623,7.887 -520.52,375.204 -451.632,664.002c39.199,164.337 218.676,423.752 600.603,481.547c381.928,57.788 420.417,228.74 738.218,263.247c262.129,28.47 279.955,-367.874 486.981,-580.457c233.069,-239.325 -0,-1145.84 -387.474,-960.393Z" clip-rule="nonzero"/></clipPath><g clip-path="url(#_clip1)"><path d="M2099.84,22.623l-1159.78,0c-7.708,90.028 -62.148,257.223 -344.738,346.754c-399.146,126.451 -592.638,292.616 -552.999,586.853c39.634,294.243 320.044,500.908 701.971,558.696c381.927,57.789 496.862,294.708 814.669,329.215c262.129,28.47 430.129,-6.759 579.377,-89.223l-0,-1693.8c-0,-21.258 -17.238,-38.496 -38.503,-38.496" style="fill:#ebf1ff;fill-rule:nonzero;"/><path d="M1442.74,676.771l-208.657,64.78l-160.304,-95.405c-3.198,-1.903 -2.632,-6.69 0.923,-7.796c19.418,-6.03 39.929,-7.689 60.069,-4.862l307.969,43.283Z" style="fill:#bbcdf9;fill-rule:nonzero;"/><path d="M1116.82,632.205l150.341,89.468l154.267,-47.894l-286.667,-40.287c-5.961,-0.841 -11.954,-1.237 -17.941,-1.287" style="fill:#aec1fc;fill-rule:nonzero;"/><path d="M739.493,816.72l-2.657,0.823c-19.638,6.1 -40.877,4.31 -59.227,-4.981l-193.561,-98.019c-7.884,-3.989 -17.012,-4.755 -25.455,-2.135l-13.449,4.171c-2.557,0.798 -3.87,3.618 -2.821,6.081l69.994,164.588l10.183,23.696l224.594,-69.73l-7.601,-24.494Z" style="fill:#90a5fc;fill-rule:nonzero;"/><path d="M941.407,921.321l858.555,-266.545c49.232,-15.284 96.58,-36.065 141.163,-61.953l112.926,-65.584c1.646,-0.955 3.16,-2.099 4.529,-3.412c14.442,-13.851 6.383,-38.257 -13.469,-40.789l-126.431,-16.113c-25.135,-3.204 -50.658,-0.974 -74.857,6.54l-1317.23,408.939c-3.028,0.943 -5.686,2.815 -7.583,5.353c-6.181,8.248 -2.418,20.127 7.382,23.318l22.828,7.451c127.286,41.518 264.322,42.491 392.186,2.795" style="fill:#738ee5;fill-rule:nonzero;"/><path d="M885.256,889.899l951.95,-295.537c54.591,-16.949 107.089,-39.991 156.51,-68.694l63.919,-37.12c-3.323,-2.865 -7.551,-4.875 -12.52,-5.51l-126.431,-16.113c-25.135,-3.204 -50.665,-0.974 -74.857,6.533l-1317.24,408.946c-3.022,0.943 -5.679,2.815 -7.582,5.353c-4.084,5.452 -3.751,12.451 -0.277,17.514c121.061,26.629 247.367,21.623 366.524,-15.372" style="fill:#fff;fill-rule:nonzero;"/><path d="M1880.37,506.507l101.542,-31.523l-63.298,-8.299l-46.16,14.329c-7.036,2.186 -10.974,9.662 -8.782,16.704c2.18,7.042 9.662,10.975 16.698,8.789" style="fill:#aec1fc;fill-rule:nonzero;"/><path d="M1738.31,560.885l8.016,-2.488c2.965,-0.917 4.624,-4.064 3.7,-7.029l-2.487,-8.016c-0.924,-2.965 -4.071,-4.617 -7.03,-3.7l-8.016,2.487c-2.959,0.924 -4.617,4.071 -3.7,7.03l2.488,8.016c0.917,2.965 4.064,4.617 7.029,3.7" style="fill:#aec1fc;fill-rule:nonzero;"/><path d="M1682.64,578.17l8.009,-2.488c2.966,-0.917 4.624,-4.064 3.701,-7.029l-2.488,-8.022c-0.917,-2.959 -4.065,-4.611 -7.023,-3.694l-8.022,2.487c-2.959,0.924 -4.618,4.071 -3.701,7.03l2.494,8.016c0.918,2.965 4.065,4.617 7.03,3.7" style="fill:#aec1fc;fill-rule:nonzero;"/><path d="M1626.97,595.451l8.009,-2.488c2.966,-0.917 4.624,-4.064 3.701,-7.029l-2.482,-8.016c-0.923,-2.965 -4.071,-4.617 -7.029,-3.7l-8.023,2.488c-2.958,0.923 -4.617,4.07 -3.7,7.029l2.494,8.016c0.918,2.965 4.065,4.617 7.03,3.7" style="fill:#aec1fc;fill-rule:nonzero;"/><path d="M1571.3,612.736l8.016,-2.488c2.965,-0.917 4.623,-4.064 3.7,-7.029l-2.488,-8.016c-0.923,-2.965 -4.071,-4.617 -7.029,-3.7l-8.016,2.488c-2.959,0.923 -4.618,4.07 -3.7,7.029l2.487,8.016c0.917,2.965 4.065,4.617 7.03,3.7" style="fill:#aec1fc;fill-rule:nonzero;"/><path d="M1515.62,630.021l8.016,-2.488c2.965,-0.923 4.623,-4.07 3.7,-7.029l-2.488,-8.022c-0.923,-2.959 -4.071,-4.611 -7.029,-3.694l-8.016,2.487c-2.959,0.924 -4.618,4.071 -3.7,7.03l2.494,8.016c0.91,2.965 4.058,4.617 7.023,3.7" style="fill:#aec1fc;fill-rule:nonzero;"/><path d="M1459.95,647.303l8.01,-2.488c2.965,-0.917 4.623,-4.064 3.7,-7.029l-2.482,-8.016c-0.923,-2.965 -4.07,-4.618 -7.029,-3.7l-8.022,2.487c-2.959,0.924 -4.618,4.071 -3.7,7.03l2.494,8.016c0.917,2.965 4.064,4.617 7.029,3.7" style="fill:#aec1fc;fill-rule:nonzero;"/><path d="M1404.28,664.587l8.016,-2.488c2.959,-0.917 4.617,-4.064 3.7,-7.029l-2.488,-8.016c-0.923,-2.965 -4.07,-4.617 -7.029,-3.7l-8.022,2.488c-2.959,0.923 -4.618,4.07 -3.7,7.029l2.494,8.016c0.917,2.965 4.064,4.617 7.029,3.7" style="fill:#aec1fc;fill-rule:nonzero;"/><path d="M1348.61,681.869l8.016,-2.488c2.965,-0.917 4.623,-4.064 3.7,-7.029l-2.488,-8.016c-0.923,-2.965 -4.07,-4.617 -7.029,-3.7l-8.016,2.494c-2.959,0.917 -4.617,4.064 -3.7,7.023l2.488,8.022c0.917,2.959 4.064,4.611 7.029,3.694" style="fill:#aec1fc;fill-rule:nonzero;"/><path d="M1292.94,699.154l8.01,-2.488c2.965,-0.917 4.623,-4.064 3.7,-7.029l-2.488,-8.016c-0.923,-2.965 -4.07,-4.618 -7.023,-3.7l-8.022,2.487c-2.959,0.924 -4.617,4.071 -3.7,7.03l2.494,8.016c0.917,2.965 4.064,4.617 7.029,3.7" style="fill:#aec1fc;fill-rule:nonzero;"/><path d="M1237.27,716.438l8.009,-2.488c2.965,-0.917 4.624,-4.07 3.7,-7.029l-2.481,-8.022c-0.923,-2.959 -4.071,-4.611 -7.03,-3.694l-8.022,2.488c-2.959,0.923 -4.617,4.07 -3.7,7.029l2.494,8.016c0.917,2.965 4.065,4.617 7.03,3.7" style="fill:#aec1fc;fill-rule:nonzero;"/><path d="M1181.6,733.72l8.016,-2.488c2.965,-0.917 4.623,-4.064 3.7,-7.029l-2.488,-8.016c-0.924,-2.965 -4.071,-4.617 -7.03,-3.7l-8.022,2.487c-2.952,0.924 -4.611,4.071 -3.694,7.03l2.488,8.016c0.917,2.965 4.065,4.617 7.03,3.7" style="fill:#aec1fc;fill-rule:nonzero;"/><path d="M1125.92,751.005l8.015,-2.488c2.966,-0.917 4.624,-4.064 3.701,-7.029l-2.488,-8.016c-0.924,-2.965 -4.071,-4.617 -7.03,-3.7l-8.015,2.487c-2.959,0.924 -4.618,4.071 -3.701,7.03l2.488,8.016c0.917,2.965 4.065,4.617 7.03,3.7" style="fill:#aec1fc;fill-rule:nonzero;"/><path d="M1070.26,768.289l8.009,-2.487c2.966,-0.924 4.624,-4.071 3.701,-7.036l-2.482,-8.016c-0.923,-2.959 -4.071,-4.617 -7.029,-3.694l-8.023,2.488c-2.958,0.923 -4.617,4.07 -3.7,7.029l2.494,8.016c0.918,2.965 4.065,4.617 7.03,3.7" style="fill:#aec1fc;fill-rule:nonzero;"/><path d="M1531.39,666.639l-321.305,99.752l-118.058,256.118c-3.242,7.036 3.386,14.593 10.78,12.294l7.827,-2.431c21.453,-6.659 41.179,-17.986 57.744,-33.163l363.012,-332.57Z" style="fill:#bbcdf9;fill-rule:nonzero;"/><path d="M1158.35,1003.72c-0.691,1.502 -0.867,3.003 -0.798,4.454c3.725,-2.827 7.356,-5.785 10.824,-8.964l363.012,-332.569l-254.007,78.858l-119.031,258.221Z" style="fill:#aec1fc;fill-rule:nonzero;"/><path d="M630.338,867.774l-113.089,35.11l-44.514,96.567l20.982,-6.514l136.621,-125.163Z" style="fill:#90a5fc;fill-rule:nonzero;"/><path d="M575.843,591.684c6.501,-12.036 24.349,-20.693 45.4,-20.693c5.842,0 11.42,0.698 16.603,1.917c2.557,-7.313 9.216,-13.626 18.337,-17.942c5.623,-27.157 41.907,-48.133 85.951,-48.133c33.213,0 62.041,11.93 76.627,29.438c8.06,-2.972 17.395,-4.699 27.371,-4.699c30.317,-0 54.886,15.699 54.886,35.06c0,1.533 -0.214,3.034 -0.503,4.517c1.615,-0.107 3.267,-0.158 4.938,-0.158c21.045,0 38.892,8.657 45.394,20.693l-375.004,0Z" style="fill:#fff;fill-rule:nonzero;"/><path d="M-77.689,786.427c6.508,-12.037 24.355,-20.693 45.406,-20.693c5.843,-0 11.421,0.697 16.604,1.916c2.557,-7.313 9.209,-13.626 18.337,-17.942c5.622,-27.157 41.907,-48.132 85.95,-48.132c33.213,-0 62.041,11.929 76.628,29.437c8.06,-2.971 17.389,-4.699 27.371,-4.699c30.317,0 54.886,15.699 54.886,35.06c-0,1.533 -0.214,3.034 -0.509,4.517c1.621,-0.107 3.273,-0.157 4.938,-0.157c21.051,-0 38.892,8.656 45.4,20.693l-375.011,-0Z" style="fill:#fff;fill-rule:nonzero;"/><path d="M1452.72,908.024c6.509,-12.036 24.356,-20.693 45.407,-20.693c5.842,0 11.42,0.698 16.603,1.916c2.557,-7.318 9.209,-13.632 18.337,-17.947c5.623,-27.151 41.907,-48.127 85.951,-48.127c33.213,0 62.041,11.93 76.628,29.438c8.059,-2.972 17.388,-4.699 27.37,-4.699c30.317,-0 54.886,15.698 54.886,35.06c0,1.532 -0.213,3.034 -0.509,4.516c1.621,-0.106 3.273,-0.157 4.938,-0.157c21.051,0 38.898,8.657 45.4,20.693l-375.011,0Z" style="fill:#fff;fill-rule:nonzero;"/><path d="M1581.05,490.461c-6.603,-12.212 -24.714,-21.001 -46.073,-21.001c-5.93,0 -11.596,0.717 -16.854,1.948c-2.601,-7.419 -9.348,-13.827 -18.608,-18.212c-5.704,-27.553 -42.522,-48.842 -87.213,-48.842c-33.709,-0 -62.964,12.111 -77.765,29.877c-8.185,-3.015 -17.652,-4.768 -27.779,-4.768c-30.763,-0 -55.69,15.925 -55.69,35.581c0,1.558 0.208,3.078 0.516,4.58c-1.653,-0.107 -3.324,-0.164 -5.014,-0.164c-21.365,0 -39.469,8.789 -46.072,21.001l380.552,0Z" style="fill:#fff;fill-rule:nonzero;"/><path d="M1535.8,160.613c5.195,-9.612 19.449,-16.522 36.253,-16.522c4.668,-0 9.122,0.553 13.262,1.533c2.041,-5.843 7.356,-10.887 14.643,-14.33c4.486,-21.685 33.458,-38.433 68.625,-38.433c26.522,0 49.54,9.524 61.193,23.507c6.433,-2.374 13.883,-3.756 21.849,-3.756c24.21,-0 43.829,12.532 43.829,27.999c0,1.225 -0.163,2.424 -0.402,3.606c1.294,-0.088 2.613,-0.126 3.939,-0.126c16.811,-0 31.058,6.91 36.253,16.522l-299.444,-0Z" style="fill:#fff;fill-rule:nonzero;"/><path d="M1062.24,116.639c2.305,-4.26 8.625,-7.332 16.081,-7.332c2.067,0 4.04,0.252 5.874,0.685c0.911,-2.594 3.267,-4.824 6.489,-6.357c1.998,-9.612 14.845,-17.043 30.437,-17.043c11.76,-0 21.968,4.227 27.132,10.428c2.852,-1.056 6.162,-1.665 9.693,-1.665c10.73,0 19.43,5.56 19.43,12.413c0,0.547 -0.075,1.075 -0.176,1.602c0.578,-0.037 1.156,-0.063 1.747,-0.063c7.456,0 13.776,3.072 16.075,7.332l-132.782,-0Z" style="fill:#fff;fill-rule:nonzero;"/><path d="M2297.69,769.623c-5.905,-10.93 -22.113,-18.795 -41.223,-18.795c-5.308,-0 -10.378,0.634 -15.083,1.746c-2.324,-6.646 -8.367,-12.375 -16.653,-16.295c-5.101,-24.664 -38.05,-43.711 -78.042,-43.711c-30.16,0 -56.343,10.837 -69.585,26.737c-7.325,-2.702 -15.793,-4.272 -24.858,-4.272c-27.522,-0 -49.836,14.26 -49.836,31.843c0,1.395 0.183,2.752 0.453,4.103c-1.47,-0.101 -2.965,-0.151 -4.486,-0.151c-19.109,-0 -35.317,7.865 -41.222,18.795l340.535,0Z" style="fill:#fff;fill-rule:nonzero;"/><rect x="-36.336" y="1490.42" width="2512.75" height="450.527" style="fill:#bdd4ff;"/><rect x="-36.336" y="1324.2" width="2512.75" height="97.403" style="fill:#bdd4ff;"/><g opacity="0.1"><rect x="-73.048" y="22.626" width="2211.39" height="1884.66" style="fill:#bbdefb;"/></g><g opacity="0.39"><path d="M-102.216,1891.77l-98.433,0l1278.17,-1966.89l98.439,-0l-1278.18,1966.89Z" style="fill:#fff;fill-rule:nonzero;"/><path d="M1517.17,1891.77l-98.439,0l1278.18,-1966.89l98.432,-0l-1278.17,1966.89Z" style="fill:#fff;fill-rule:nonzero;"/><path d="M1335.33,1891.77l-370.104,0l1278.17,-1966.89l370.104,-0l-1278.17,1966.89Z" style="fill:#fff;fill-rule:nonzero;"/><path d="M-280.1,1891.77l-370.104,0l1278.17,-1966.89l370.104,-0l-1278.17,1966.89Z" style="fill:#fff;fill-rule:nonzero;"/></g><rect x="479.09" y="-195.127" width="54.057" height="2079.17" style="fill:#fff;"/><rect x="1869.89" y="-195.127" width="54.057" height="2079.17" style="fill:#fff;"/><rect x="-239.446" y="320.405" width="2881.93" height="55.344" style="fill:#fff;"/></g></g><path d="M1493.55,1909.9c0,26.334 -218.997,47.68 -489.142,47.68c-270.145,0 -489.148,-21.346 -489.148,-47.68c-0,-26.328 219.003,-47.674 489.148,-47.674c270.145,-0 489.142,21.346 489.142,47.674" style="fill:#ebf1ff;fill-rule:nonzero;"/><path d="M1204.72,1240.44l-173.71,43.842c0,-0 44.879,194.742 62.336,266.106c17.885,73.084 7.979,308.113 7.979,308.113l49.665,0l26.868,-309.037l26.862,-309.024Z" style="fill:#1b173d;fill-rule:nonzero;"/><path d="M1166.9,923.972c0,-0 17.734,61.136 46.33,164.827c-0,0 36.875,13.412 136.627,20.461l-3.135,33.156c0,-0 -109.991,19.901 -170.657,-5.126c-60.665,-25.028 -111.511,-246.87 -9.165,-213.318" style="fill:#ffa689;fill-rule:nonzero;"/><path d="M1263.09,1137.72l52.015,60.238l84.06,-109.451l-33.992,-65.54l-102.083,114.753Z" style="fill:#4764cf;fill-rule:nonzero;"/><path d="M1253.95,1162.96l88.3,-118.366l56.915,43.911l-84.059,109.452l-61.156,-34.997Z" style="fill:#5172ed;fill-rule:nonzero;"/><path d="M1384.53,1112.86c-0.389,-1.816 -2.713,-2.488 -4.278,-1.483c-3.04,1.948 -6.634,6.439 -15.208,6.703c-8.544,0.258 -19.751,-5.698 -23.426,-1.834c-0,-0 -18.457,23.557 0.27,46.857c0,0 56.657,14.788 42.642,-50.243" style="fill:#ffa689;fill-rule:nonzero;"/><path d="M1131.89,1100.8c-0,0 44.175,-6.521 80.391,-37.742c-0,-0 -12.822,-68.933 -30.644,-110.507c-17.828,-41.568 -45.959,-77.966 -91.711,-50.903c-45.746,27.057 -32.44,89.167 41.964,199.152" style="fill:#4764cf;fill-rule:nonzero;"/><path d="M984.375,1073.01c0,-0 37.717,23.903 85.53,23.903c-0,0 35.298,-60.584 48.943,-103.703c13.644,-43.126 16.101,-89.06 -36.216,-98.439c-52.323,-9.373 -82.79,46.355 -98.257,178.239" style="fill:#5172ed;fill-rule:nonzero;"/><path d="M1180.77,1259.16c-0,-0 -107.341,-36.266 -173.905,23.727c0,0 12.212,56.35 48.918,123.768c62.079,113.993 93.835,150.9 93.835,150.9c-0,0 -67.633,60.201 -197.997,210.648c0,0 8.154,30.789 34.407,40.632c-0,0 191.023,-180.186 248.66,-228.212c18.846,-15.705 15.008,-27.547 7.589,-62.299c-12.564,-58.894 -54.157,-232.308 -61.507,-259.164" style="fill:#271f50;fill-rule:nonzero;"/><path d="M1089.37,812.512l-2.305,47.109c-0,-0 36.988,30.467 67.456,29.06l14.065,-62.813l-86.246,-58.586l7.03,45.23Z" style="fill:#ffa689;fill-rule:nonzero;"/><path d="M1107.16,804.276c-0,-0 19.669,36.693 55.539,47.894l5.886,-26.297l-61.425,-21.597Z" style="fill:#ed8a6d;fill-rule:nonzero;"/><path d="M1031.41,1453.69l-87.678,-66.583c-4.926,-3.732 -5.887,-10.761 -2.149,-15.687c3.744,-4.925 10.767,-5.88 15.693,-2.148l87.671,66.583c4.925,3.744 5.886,10.767 2.149,15.692c-3.744,4.919 -10.768,5.887 -15.686,2.143" style="fill:#060412;fill-rule:nonzero;"/><path d="M958.456,1394.56l-192.789,253.868" style="fill:none;fill-rule:nonzero;stroke:#060412;stroke-width:16.35px;"/><path d="M1020.19,1441.59l-192.788,253.874" style="fill:none;fill-rule:nonzero;stroke:#060412;stroke-width:16.35px;"/><path d="M1012.5,932.275c-0,-0 -93.866,4.717 -108.918,57.668c-15.051,52.952 -13.048,261.074 -13.048,261.074c0,0 19.795,47.298 83.268,53.397c0,0 33.1,7.639 31.191,-61.802c-1.91,-69.435 7.507,-310.337 7.507,-310.337" style="fill:#171032;fill-rule:nonzero;"/><path d="M959.671,942.545c-0,-0 -9.405,8.241 -14.418,19.028c-18.431,39.595 -12.739,146.333 -20.573,154.914c-6.521,7.149 -17.59,8.493 -28.527,11.496c-4.674,1.275 -10.095,-1.684 -9.888,-6.225c4.178,-91.284 -2.889,-167.215 73.406,-179.213" style="fill:#211d49;fill-rule:nonzero;"/><path d="M891.397,1140.86c-0,0 25.259,-5.798 29.644,0.226c6.257,8.6 3.813,106.562 -3.185,109.232c-6.992,2.682 -31.598,0.54 -32.999,-1.533c-5.233,-7.733 -8.468,-104.765 6.54,-107.925" style="fill:#211d49;fill-rule:nonzero;"/><path d="M1208.9,694.39c-0,0 26.013,126.557 -12.659,142.03c-38.672,15.466 -95.153,-23.909 -108.98,-63.982c-11.785,-34.155 -10.547,-115.313 121.639,-78.048" style="fill:#ffa689;fill-rule:nonzero;"/><path d="M1170.64,714.266c0,0 10.491,26.881 -10.252,33.207c-16.886,5.151 -21.799,17.577 -21.799,17.577c0,0 -3.436,-27.019 -21.861,-28.024c-20.021,-1.093 -18.903,27.497 -1.325,41.556c-0,-0 -0.013,33.929 -26.033,33.929c-0,-0 -58.687,-67.35 -33.018,-107.957c-3.77,-12.35 13.732,-45.437 58.73,-49.652c44.998,-4.222 57.908,6.288 92.069,-4.316c32.673,-10.139 54.189,68.254 -36.511,63.68" style="fill:#171032;fill-rule:nonzero;"/><g opacity="0.22"><clipPath id="_clip2"><rect x="966.147" y="1248.4" width="247.052" height="537.407" clip-rule="nonzero"/></clipPath><g clip-path="url(#_clip2)"><path d="M1096.49,1248.68l115.797,300.782l-245.595,235.777" style="fill:none;fill-rule:nonzero;stroke:#fff;stroke-width:4.34px;"/></g></g><path d="M770.867,1909.75c-0,15.535 -12.596,28.131 -28.131,28.131c-15.523,-0 -28.118,-12.596 -28.118,-28.131c-0,-15.529 12.595,-28.125 28.118,-28.125c15.535,0 28.131,12.596 28.131,28.125" style="fill:#060412;fill-rule:nonzero;"/><path d="M666.103,1860.06c0,15.536 -12.595,28.125 -28.124,28.125c-15.53,-0 -28.125,-12.589 -28.125,-28.125c-0,-15.535 12.595,-28.124 28.125,-28.124c15.529,-0 28.124,12.589 28.124,28.124" style="fill:#060412;fill-rule:nonzero;"/><path d="M894.151,1643.04c0,0 8.663,125.622 -36.335,194.994c-44.998,69.372 -110.626,58.127 -110.626,58.127l13.538,-21.264c-0,-0 47.404,19.386 75.528,-54.673c28.125,-74.058 22.496,-150.931 22.496,-150.931l35.399,-26.253Z" style="fill:#060412;fill-rule:nonzero;"/><path d="M842.128,1607.53c0,-0 28.162,2.701 50.445,29.443c17.2,20.643 -111.638,219.889 -140.617,264.108c-3.449,5.277 -9.863,7.746 -15.962,6.113c-20.737,-5.56 -68.644,-20.404 -103.453,-46.682c0,0 133.022,-233.414 209.587,-252.982" style="fill:#171032;fill-rule:nonzero;"/><path d="M852.116,1609.77c-0,0 -105.77,-63.655 -162.591,-10.786c-37.673,35.047 -110.325,133.838 -138.468,172.774c-6.81,9.423 -5.736,22.376 2.569,30.524c18.136,17.772 56.205,45.897 83.055,60.546c3.976,2.174 8.908,0.905 11.401,-2.871c22.993,-34.846 133.003,-198.593 204.034,-250.187" style="fill:#211d49;fill-rule:nonzero;"/><path d="M617.829,1689.37c-4.152,-3.248 -10.346,-1.501 -13.55,2.695c-13.469,17.653 -47.053,61.828 -52.028,70.176c-9.75,16.359 30.103,50.91 78.789,76.572c15.221,8.022 33.797,-26.818 53.397,-53.536c12.954,-17.671 24.142,-33.181 22.653,-38.917c-1.608,-6.156 -26.975,-14.046 -50.137,-28.419c-15.171,-9.411 -28.061,-19.933 -39.124,-28.571" style="fill:#2e2c60;fill-rule:nonzero;"/><path d="M852.116,1609.77c-0,0 -47.8,-33.891 -115.595,-34.94c-57.575,-0.886 -120.86,98.822 -120.86,98.822c-8.167,10.516 90.499,70.27 101.492,56.657c43.616,-53.686 86.24,-94.462 107.956,-114.144c1.489,-1.275 13.199,-10.711 27.007,-6.395" style="fill:#2e2c60;fill-rule:nonzero;"/><path d="M672.827,1849.92l58.925,-88.865c2.136,-3.223 6.313,-4.392 9.806,-2.733l57.669,27.339c3.65,1.734 4.925,6.295 2.701,9.674l-57.11,86.56c-3.291,4.994 -9.674,6.942 -15.196,4.643l-52.285,-21.793c-5.823,-2.425 -7.997,-9.561 -4.51,-14.825" style="fill:#1c163f;fill-rule:nonzero;"/><path d="M1073.91,865.596c-0,0 -57.656,10.428 -67.036,96.68c-9.372,86.246 0,330.384 0,330.384c0,-0 54.019,20.944 115.269,-8.896c39.42,-19.21 64.673,-20.266 75.302,-22.703c4.316,-0.999 7.338,-4.743 7.394,-9.172c0.113,-9.391 0.27,-27.502 0.201,-54.791c-0.188,-76.214 -8.411,-205.849 -41.235,-294.821c0,-0 -55.683,-33.986 -89.895,-36.681" style="fill:#5172ed;fill-rule:nonzero;"/><path d="M1112.8,1023.17c-48.145,-2.406 -83.739,16.88 -110.054,46.487c-0.528,101.787 4.127,222.998 4.127,222.998c-0,0 32.139,12.357 74.907,4.392c-30.625,-46.776 -30.839,-89.72 -4.404,-142.332c21.158,-42.102 35.424,-131.545 35.424,-131.545" style="fill:#4764cf;fill-rule:nonzero;"/><path d="M1006.87,962.274c0,-0 45.758,-74.455 79.204,-61.872c41.128,15.467 49.477,95.009 -12.169,178.284l-32.829,34.752l-8.437,30.939c-0,-0 83.67,-73.827 103.358,-145.542c19.681,-71.715 -6.175,-100.204 -42.19,-112.498c-44.295,-15.115 -65.522,11.867 -92.547,49.219l5.61,26.718Z" style="fill:#171032;fill-rule:nonzero;"/><path d="M999.375,1039.14c-0,0 -14.059,60.936 -18.746,137.809c-3.945,64.667 -4.573,144.266 -4.674,167.912c-0.012,4.07 -1.576,7.971 -4.479,10.83c-7.701,7.563 -22.414,26.171 -19.951,56.104c0.867,10.498 5.446,24.984 31.542,33.333c3.599,1.149 13.029,5.094 13.029,-13.186c-0,-18.281 7.381,-30.6 14.888,-36.681c7.494,-6.081 15.108,9.963 15.108,23.086c0,13.124 8.789,4.806 10.548,-4.51c1.759,-9.316 0.351,-34.281 -19.336,-60.288c-0,-0 -0.352,-4.574 2.104,-35.858c2.463,-31.291 7.721,-137.218 18.972,-164.287c11.251,-27.069 43.609,-104.3 43.609,-104.3l-82.614,-9.964Z" style="fill:#ffa689;fill-rule:nonzero;"/><path d="M984.375,1079.04c0,-0 37.717,17.878 85.53,17.878c-0,0 35.298,-60.583 48.943,-103.703c13.644,-43.126 16.101,-89.06 -36.216,-98.439c-52.323,-9.373 -82.79,52.379 -98.257,184.264" style="fill:#5172ed;fill-rule:nonzero;"/><path d="M1102.27,1853.35c0,0 -13.789,20.109 -7.061,49.214c0.993,4.315 4.687,7.287 8.801,7.287l149.273,-0c3.072,-0 5.516,-2.884 5.126,-6.175c-0.998,-8.5 -8.003,-23.225 -43.44,-27.61c-9.712,-1.193 -19.028,-4.824 -26.73,-10.861c-12.784,-10.02 -32.214,-23.671 -38.948,-19.889c-0,-0 -21.403,12.928 -47.021,8.034" style="fill:#171032;fill-rule:nonzero;"/><path d="M1087.57,849.311c-5.315,0.214 -13.663,16.283 -13.663,16.283c-0,0 15.805,12.187 54.238,26.253c17.797,6.508 26.705,15.705 30.801,21.465c1.244,1.741 3.951,1.075 4.234,-1.042c1.125,-8.531 1.621,-23.545 -6.715,-32.221c-0,0 -52.901,-14.455 -68.895,-30.738" style="fill:#271f50;fill-rule:nonzero;"/><path d="M952.4,1768.66c0,-0 -24.192,3.066 -41.461,27.44c-2.563,3.612 -2.324,8.349 0.415,11.427l99.23,111.505c2.042,2.3 5.818,2.205 8.023,-0.276c5.678,-6.395 12.023,-21.422 -8.255,-50.796c-5.56,-8.067 -9.046,-17.433 -9.655,-27.201c-1.012,-16.214 -3.732,-39.797 -11.032,-42.316c0,-0 -23.89,-7.394 -37.265,-29.783" style="fill:#171032;fill-rule:nonzero;"/><path d="M1014,1412.35l23.476,17.835l-1.916,10.447l-27.402,-13.701l5.842,-14.581Z" style="fill:#060412;fill-rule:nonzero;"/><path d="M372.419,1627.85c0,6.747 -36.768,12.213 -82.118,12.213c-45.356,-0 -82.131,-5.466 -82.131,-12.213c-0,-6.746 36.775,-12.212 82.131,-12.212c45.35,0 82.118,5.466 82.118,12.212" style="fill:#1c163f;fill-rule:nonzero;"/><path d="M444.564,1905.74c0,9.806 -69.064,17.746 -154.267,17.746c-85.196,0 -154.261,-7.94 -154.261,-17.746c0,-9.806 69.065,-17.747 154.261,-17.747c85.203,0 154.267,7.941 154.267,17.747" style="fill:#ebf1ff;fill-rule:nonzero;"/><path d="M310.286,1649.25c0,-0 -17.024,-51.23 4.712,-74.429c21.736,-23.194 -13.048,-62.293 38.477,-84.393c51.525,-22.106 49.722,-73.738 94.557,-73.958c44.828,-0.22 80.077,-21.107 94.708,-1.294c14.63,19.826 -53.341,29.437 -53.492,63.027c-0.138,33.603 -6.772,36.819 -25.147,57.789c-10.29,11.753 -5.503,37.723 -28.363,62.87c-17.935,19.713 -65.119,13.035 -125.452,50.388" style="fill:#90a5fc;fill-rule:nonzero;"/><path d="M310.286,1649.25c0,-0 21.46,-51.437 70.893,-78.676c49.439,-27.245 31.994,-138.166 161.561,-155.398" style="fill:none;fill-rule:nonzero;stroke:#fff;stroke-width:6.86px;stroke-linecap:round;stroke-linejoin:round;"/><path d="M320.428,1673.63c-0,0 -9.053,-73.279 7.513,-132.223c16.572,-58.944 -10.535,-77.79 -57.003,-93.012c-46.462,-15.215 -17.288,-63.762 -31.102,-109.03c-13.814,-45.268 -48.604,25.065 -60.157,-36.58c-11.559,-61.646 -29.155,-93.445 -43.195,-90.813c-14.046,2.632 -18.758,16.283 -28.803,86.761c-10.051,70.478 -58.994,65.301 -16.54,121.148c42.453,55.86 53.265,40.073 29.688,88.564c-50.369,103.559 129.975,72.947 199.599,165.185" style="fill:#5172ed;fill-rule:nonzero;"/><path d="M320.428,1673.63c-0,0 -23.112,-123.29 -89.77,-184.176c-66.652,-60.897 -110.846,-125.991 -94.174,-277.482" style="fill:none;fill-rule:nonzero;stroke:#fff;stroke-width:8.28px;stroke-linecap:round;stroke-linejoin:round;"/><path d="M297.213,1663.6c-0,-0 -72.356,-191.746 -122.185,-179.634c-49.829,12.112 -54.817,14.662 -100.204,-21.642c-45.388,-36.31 -78.412,3.324 -43.692,32.384c34.721,29.061 35.94,31.699 2.834,63.731c-33.107,32.026 45.883,67.871 115.369,57.072c69.485,-10.799 136.998,32.252 147.878,48.089" style="fill:#90a5fc;fill-rule:nonzero;"/><path d="M297.213,1663.6c-0,-0 -33.917,-71.282 -125.301,-89.739c-91.384,-18.469 -48.667,-78.732 -155.178,-106.63" style="fill:none;fill-rule:nonzero;stroke:#fff;stroke-width:7.57px;stroke-linecap:round;stroke-linejoin:round;"/><path d="M290.3,1640.07c-38.006,0 -69.888,-3.844 -79.254,-9.052c9.304,12.061 39.162,65.785 56.858,272.394c0,2.996 10.02,5.427 22.396,5.427c12.369,0 22.395,-2.431 22.395,-5.427c17.69,-206.609 47.549,-260.333 56.852,-272.394c-9.366,5.214 -41.247,9.052 -79.247,9.052" style="fill:#2e2c60;fill-rule:nonzero;"/></g></svg>